PathFileType	4	(X/Y/Z)	c:/Users/goper/Files/vsCode/490R/osim_files/C08/C08_Slow_03.trc
DataRate	CameraRate	NumFrames	NumMarkers	Units                	OrigDataRate	OrigDataStartFrame	OrigNumFrames
250.00	250.00	9	36	mm	250.0	1443	2885
                Frame#	Time	LPSIS			LASIS			LTH1			LTH2			LTH3			LTH4			LLFE			LMFE			LSH1			LSH2			LSH3			LSH4			LLMAL			LMMAL			LCAL			LMTP5			LTOE			LMTP1			RPSIS			RASIS			RTH1			RTH2			RTH3			RTH4			RLFE			RMFE			RSH1			RSH2			RSH3			RSH4			RLMAL			RMMAL			RCAL			RMTP1			RTOE			RMTP5		
		X1	Y1	Z1	X2	Y2	Z2	X3	Y3	Z3	X4	Y4	Z4	X5	Y5	Z5	X6	Y6	Z6	X7	Y7	Z7	X8	Y8	Z8	X9	Y9	Z9	X10	Y10	Z10	X11	Y11	Z11	X12	Y12	Z12	X13	Y13	Z13	X14	Y14	Z14	X15	Y15	Z15	X16	Y16	Z16	X17	Y17	Z17	X18	Y18	Z18	X19	Y19	Z19	X20	Y20	Z20	X21	Y21	Z21	X22	Y22	Z22	X23	Y23	Z23	X24	Y24	Z24	X25	Y25	Z25	X26	Y26	Z26	X27	Y27	Z27	X28	Y28	Z28	X29	Y29	Z29	X30	Y30	Z30	X31	Y31	Z31	X32	Y32	Z32	X33	Y33	Z33	X34	Y34	Z34	X35	Y35	Z35	X36	Y36	Z36

1443	5.76800	116.36143	1038.54358	194.46744	-80.94530	996.87048	293.59576	9.12079	716.57355	366.67664	1.97924	637.80396	356.15390	-2.79772	564.15497	355.95804	-77.31173	648.36279	353.26450	-0.08344	515.99683	350.29901	-38.47198	498.99484	224.65814	103.25159	463.40060	353.77115	134.06239	427.22974	351.28281	59.73995	419.52344	359.87268	95.06818	390.25977	354.32755	327.97958	242.83624	290.46967	298.27396	228.62755	206.04492	374.29242	283.52753	229.74013	320.46326	110.87133	316.31757	261.24365	81.60149	262.53433	289.75122	94.20924	208.50490	111.11757	1039.01282	134.35785	-94.11797	1014.17395	58.65788	-69.00517	747.37677	-4.61231	-82.96712	671.51172	16.39107	-94.53506	593.45392	23.22807	-153.03990	689.23273	45.90350	-111.31536	525.08112	43.11497	-96.38011	519.29071	164.97064	-64.40699	436.59232	21.82442	-73.40221	392.60358	18.42647	-125.38425	440.21115	36.76997	-125.77386	395.96204	31.55171	-71.84367	97.24110	80.70937	-100.68506	100.91692	169.90921	-15.78724	73.12036	150.37108	-230.96016	44.72330	159.48640	-248.52922	64.65247	106.39367	-197.54535	45.05283	46.08100
1444	5.77200	112.22069	1038.77234	193.58319	-84.95603	997.06946	293.30905	3.57570	717.27466	366.97287	-5.15303	638.42328	356.21268	-10.60453	564.82446	356.11353	-84.38261	649.69104	353.66391	-8.30974	516.70306	350.52399	-47.06793	499.99557	224.89470	94.26256	464.87988	353.94580	125.35133	428.86435	351.48029	51.11659	420.79242	360.06512	86.76933	391.89691	354.97098	320.15506	245.53101	290.38034	290.40134	230.91893	206.09242	366.69543	285.96298	229.37863	312.46051	113.85628	317.11035	251.08820	84.56863	263.92520	281.69067	96.40076	209.40674	106.84205	1039.21350	133.47128	-98.79851	1014.04797	58.14048	-71.89342	747.60138	-5.03833	-86.27280	671.90900	15.74323	-96.43807	593.55908	22.85510	-155.60503	689.02161	45.48182	-112.89629	525.05859	42.73737	-98.23330	519.37872	164.70856	-65.66798	436.71371	21.49117	-74.44707	392.69467	18.15970	-126.19395	440.34113	36.35654	-126.85085	395.86752	31.25894	-71.90788	97.30131	80.65057	-100.83681	100.99647	169.87202	-15.82895	73.19299	150.32185	-230.99503	44.67298	159.47998	-248.59384	64.48903	106.35889	-197.55157	44.99081	46.01853
1445	5.77600	108.12788	1039.01611	192.69804	-89.17905	997.40118	293.06345	-2.72525	717.89307	366.81165	-12.28938	639.13733	356.27060	-18.46503	565.55811	356.18228	-91.22827	650.98657	353.76529	-16.68558	517.72119	350.80484	-55.56450	501.00363	225.09962	85.45958	466.43054	354.03006	116.91370	430.69064	351.81387	42.51783	422.08783	360.26959	78.40535	393.47388	355.16541	312.16385	248.00035	290.27170	282.35013	233.03226	206.11533	358.50940	287.77948	229.00287	304.15134	116.64343	317.90723	242.00554	87.07894	265.10925	273.36252	98.37302	210.34262	102.59708	1039.42761	132.61436	-103.07950	1013.92596	57.49033	-74.76254	747.81653	-5.40958	-86.52045	671.47418	13.93342	-98.35918	593.63861	22.43572	-158.13086	688.77924	45.00843	-114.42653	525.07153	42.30700	-100.29517	519.38733	164.43556	-66.89318	436.83432	21.15597	-75.53560	392.78687	17.91948	-127.57208	440.22064	35.81059	-127.90848	395.78226	30.92709	-72.02209	97.35197	80.61159	-100.98589	101.09570	169.82014	-15.88219	73.23798	150.28728	-231.02431	44.61430	159.46826	-248.65527	64.34280	106.33289	-197.57582	44.93721	45.97432
1446	5.78000	104.00011	1039.30151	191.88837	-93.27737	997.72247	292.82361	-8.96709	718.57928	366.65536	-19.32933	639.91095	356.33163	-26.26406	566.34509	356.30640	-98.19478	652.49359	354.10733	-25.35325	518.44806	350.88309	-63.72721	502.07251	225.30305	76.65472	467.98917	353.99667	108.12051	432.32791	351.53296	33.99273	423.52930	360.43896	69.91733	394.97507	355.31305	304.01016	250.28999	290.16443	274.15088	234.97945	206.12773	350.46152	289.58743	228.53326	295.71094	119.26008	318.70615	235.88603	88.63886	265.78766	264.73575	100.14552	211.32832	98.39440	1039.71118	131.82132	-107.29040	1013.89172	56.82891	-77.42604	748.01617	-5.73860	-88.96943	671.64783	13.61401	-100.22193	593.79272	22.08258	-160.65410	688.54620	44.55430	-115.94868	525.06635	41.92488	-102.60691	519.30292	164.15091	-68.08027	436.95877	20.84377	-76.52301	392.84848	17.68324	-128.68112	440.19046	35.35286	-128.96123	395.72922	30.64528	-72.12148	97.43302	80.58111	-101.15854	101.21142	169.76035	-15.96716	73.32874	150.23262	-231.06859	44.56443	159.46017	-248.72690	64.20832	106.29935	-197.58490	44.88490	45.91161
1447	5.78400	99.85744	1039.64844	191.07408	-97.42192	998.20532	292.62177	-15.23122	719.28015	366.47452	-26.43159	640.68701	356.17953	-34.39656	566.99738	356.00549	-105.32404	654.09296	354.60852	-33.53444	519.48016	351.03940	-72.17998	503.27002	225.59738	67.95965	469.59442	353.90698	99.75710	434.14407	351.69864	25.52725	425.01990	360.57678	61.53082	396.61185	355.46545	295.72739	252.32391	290.03281	265.66486	236.65688	206.19765	342.27261	291.20047	228.06766	287.10269	121.62974	319.44940	228.16504	90.39162	266.75256	256.04257	101.88564	212.17480	94.13823	1040.02344	131.02113	-111.52094	1013.79926	56.18373	-80.19497	748.26038	-6.07462	-91.39824	671.87274	13.33301	-102.05745	593.91943	21.72321	-163.15228	688.33264	44.09040	-117.45619	525.08868	41.57507	-105.20968	519.11200	163.85381	-69.25382	437.11966	20.59089	-77.50507	392.99188	17.46657	-129.96707	440.12228	35.00927	-129.95357	395.70056	30.37092	-72.23788	97.54076	80.54961	-101.26479	101.32912	169.70528	-16.01447	73.40993	150.18655	-231.07854	44.50829	159.44453	-248.78378	64.06604	106.25968	-197.61568	44.83157	45.86608
1448	5.78800	95.78067	1040.08240	190.35428	-101.62927	998.69025	292.43896	-21.47274	720.05054	366.26889	-33.39566	641.57440	356.11493	-41.71933	568.13574	356.28177	-111.48078	656.65088	355.60056	-41.70372	520.55072	351.11340	-80.63339	504.44342	225.81760	59.38206	471.25958	353.69949	91.02301	435.75540	351.29123	17.05571	426.52612	360.74750	53.08091	398.23242	355.57462	287.35736	254.19484	289.88446	257.08408	238.19969	206.24214	333.89090	292.53510	227.59819	278.39984	123.77030	320.19473	216.21405	92.97231	268.44247	247.12479	103.37924	213.08333	89.93713	1040.43018	130.34657	-116.11340	1013.54950	55.44032	-83.01787	748.51666	-6.49089	-93.80628	672.11340	13.03972	-103.94449	594.02728	21.38411	-165.67268	688.09760	43.57532	-118.97752	525.13226	41.24878	-107.79420	518.95459	163.57213	-70.30126	437.45810	20.39626	-78.51859	393.17926	17.30510	-130.86987	440.28171	34.61242	-131.00523	395.68628	30.14458	-72.35146	97.66125	80.52554	-101.40419	101.46413	169.64171	-16.05416	73.51735	150.14668	-231.09834	44.46359	159.40988	-248.86363	63.93367	106.21617	-197.64761	44.78724	45.81445
1449	5.79200	91.73246	1040.62915	189.68530	-105.73284	999.22046	292.25504	-27.72493	720.85803	366.08926	-40.46328	642.48596	355.97235	-49.78941	568.94202	355.92169	-118.35342	658.24927	355.78793	-50.28227	521.44861	350.94046	-89.82946	505.33078	226.14813	50.81080	472.98157	353.41037	82.54850	437.49078	351.05054	8.60426	428.20776	360.83960	44.66073	399.92648	355.69052	278.61398	255.93372	290.44974	248.47545	239.46898	206.27826	325.15500	293.58673	226.97975	269.57159	125.69181	320.86765	207.38110	94.48542	269.53839	237.91428	104.61613	214.05966	85.81973	1040.90942	129.71817	-120.14267	1013.58716	54.79776	-85.90611	748.89581	-6.63100	-96.06910	672.27557	12.79051	-105.74265	594.22198	21.03898	-168.08467	687.85974	43.11710	-120.49681	525.13501	40.95803	-109.35642	519.26392	163.38191	-71.56155	437.50137	20.23732	-79.51227	393.37042	17.15351	-132.36824	440.14581	34.40907	-131.96033	395.72906	29.95853	-72.45844	97.74371	80.51379	-101.52951	101.62833	169.58087	-16.37587	74.06401	150.23540	-231.14223	44.45200	159.34804	-248.91251	63.84275	106.15945	-197.67599	44.72958	45.75493
1450	5.79600	87.66098	1041.21362	189.09552	-109.93049	999.85370	292.05588	-34.04382	721.70612	365.87494	-47.50126	643.47461	355.80801	-57.18752	570.16797	356.06021	-125.59822	659.66974	355.66135	-57.95324	522.93384	351.15100	-97.76302	506.75616	226.20018	42.27818	474.66504	353.05963	74.05971	439.22751	350.77216	0.14701	429.88690	360.96259	36.20957	401.62042	355.81815	270.01291	257.33047	290.32260	239.41330	240.62856	206.48613	316.71533	294.56824	226.53723	260.66376	127.37697	321.56998	198.08034	95.96681	270.66943	228.66449	105.72546	214.96402	81.69270	1041.44360	129.15315	-124.08681	1013.64539	54.13631	-88.48393	749.04846	-7.13785	-98.52869	672.47583	12.40490	-107.66935	594.26648	20.74807	-170.55962	687.64801	42.71150	-122.05505	525.19519	40.70699	-110.91766	519.54333	163.18683	-72.57415	437.95859	20.11616	-80.49934	393.57053	17.04826	-133.20296	440.34668	34.29142	-133.00963	395.78815	29.80124	-72.57666	97.85833	80.50315	-101.69990	101.75880	169.54861	-16.16193	73.95075	150.05533	-231.19914	44.41639	159.29861	-249.00926	63.73985	106.11118	-197.70856	44.70094	45.71855
1451	5.80000	83.53368	1041.79272	188.61572	-114.00567	1000.58594	291.85873	-40.38921	722.53510	365.67300	-54.57854	644.43530	355.69598	-64.85947	571.22632	355.94034	-132.73416	661.10315	355.55316	-66.04848	524.12878	351.11646	-106.04400	508.03122	226.30870	33.78830	476.29843	352.66742	65.55970	440.87183	350.52451	-8.26952	431.52179	361.07458	27.77562	403.27725	355.96048	261.28204	258.48154	290.15591	230.38176	241.42139	206.53802	308.01556	295.32178	226.06401	251.62018	128.77905	322.14059	189.03427	97.13315	271.72308	220.13956	107.19405	215.29834	77.62717	1042.01233	128.70567	-127.99026	1013.77679	53.44358	-91.35185	749.25256	-7.52163	-100.91766	672.69055	12.13088	-109.48160	594.45160	20.47324	-173.01097	687.39362	42.28890	-123.53522	525.21710	40.47063	-112.49120	519.73981	163.03186	-73.72001	438.19363	20.01087	-81.47973	393.79022	16.95681	-134.41342	440.38773	33.90116	-134.05092	395.82745	29.70844	-72.71419	97.97581	80.50224	-101.87518	101.88020	169.52721	-16.23968	74.14015	150.04614	-231.26294	44.39013	159.25612	-249.10777	63.63426	106.05342	-197.73776	44.65250	45.67318
